<svg width="200" height="201" viewBox="0 0 200 201" fill="none" xmlns="http://www.w3.org/2000/svg">
<g clip-path="url(#clip0_3819_343)">
<path d="M100 200.671C155.228 200.671 200 155.9 200 100.671C200 45.443 155.228 0.671448 100 0.671448C44.7715 0.671448 0 45.443 0 100.671C0 155.9 44.7715 200.671 100 200.671Z" fill="#F5FAFE"/>
<path d="M68.125 152.234C65.2891 152.234 62.8605 151.219 60.8392 149.191C58.818 147.162 57.8091 144.726 57.8125 141.882V79.773C57.8125 76.9263 58.8231 74.4885 60.8444 72.4596C62.8656 70.4307 65.2925 69.418 68.125 69.4215H99.0625L109.375 79.773H150.625C153.461 79.773 155.89 80.7875 157.911 82.8164C159.932 84.8453 160.941 87.2813 160.937 90.1246V141.882C160.937 144.729 159.927 147.167 157.906 149.196C155.884 151.225 153.457 152.237 150.625 152.234H68.125Z" stroke="#B0D4ED" stroke-width="1.5" stroke-linecap="round" stroke-linejoin="round" stroke-dasharray="4 6"/>
<path d="M51.874 144.161C48.7806 144.161 46.1314 143.054 43.9266 140.84C41.7218 138.626 40.6213 135.968 40.625 132.866V65.0921C40.625 61.9858 41.7274 59.3257 43.9322 57.1117C46.137 54.8978 48.7843 53.7927 51.874 53.7965H78.9921C83.2081 53.7965 87.2222 55.6018 90.0195 58.7561L91.2401 60.1324C94.0374 63.2867 98.0516 65.0921 102.268 65.0921H141.866C144.96 65.0921 147.609 66.199 149.814 68.413C152.019 70.6269 153.119 73.2851 153.115 76.3877V132.866C153.115 135.972 152.013 138.632 149.808 140.846C147.603 143.06 144.956 144.165 141.866 144.161H51.874Z" fill="#ADDBFD"/>
<circle cx="55.7163" cy="76.2684" r="8.59375" fill="white"/>
<rect x="52.6218" y="89.9424" width="88.0359" height="43.5394" rx="9.82612" fill="#4EB8F6"/>
<rect x="60.7734" y="97.581" width="71.733" height="6.87465" rx="2.45653" fill="#3598EB"/>
<rect x="60.7734" y="109.039" width="42.015" height="6.87465" rx="2.45653" fill="#3598EB"/>
<rect x="106.887" y="109.039" width="25.6189" height="6.87465" rx="2.45653" fill="#3598EB"/>
<path d="M137.167 46.8334H130.167V39.8334C130.167 39.5239 130.044 39.2272 129.825 39.0084C129.606 38.7896 129.309 38.6667 129 38.6667C128.691 38.6667 128.394 38.7896 128.175 39.0084C127.956 39.2272 127.833 39.5239 127.833 39.8334V46.8334H120.833C120.524 46.8334 120.227 46.9563 120.008 47.1751C119.79 47.3939 119.667 47.6906 119.667 48C119.667 48.3094 119.79 48.6062 120.008 48.825C120.227 49.0438 120.524 49.1667 120.833 49.1667H127.833V56.1667C127.833 56.4761 127.956 56.7729 128.175 56.9916C128.394 57.2104 128.691 57.3334 129 57.3334C129.309 57.3334 129.606 57.2104 129.825 56.9916C130.044 56.7729 130.167 56.4761 130.167 56.1667V49.1667H137.167C137.476 49.1667 137.773 49.0438 137.992 48.825C138.21 48.6062 138.333 48.3094 138.333 48C138.333 47.6906 138.21 47.3939 137.992 47.1751C137.773 46.9563 137.476 46.8334 137.167 46.8334Z" fill="#3598EB"/>
</g>
<defs>
<clipPath id="clip0_3819_343">
<rect width="200" height="200" fill="white" transform="translate(0 0.671448)"/>
</clipPath>
</defs>
</svg>
